<svg xmlns="http://www.w3.org/2000/svg" width="48" height="48" viewBox="0 0 48 48"><title>american express</title><g fill="none"><path fill="#2A77BC" d="M44 24c0 11.046-8.954 20-20 20S4 35.046 4 24 12.954 4 24 4s20 8.954 20 20z"/><path fill="#FFF" d="M11.58 21.706H17l.678-1.67.662 1.67h13.492v-1.143a2.607 2.607 0 0 1 2.61 1.143h5.966c.016-.16.016-.32.016-.48 0-.16 0-.32-.016-.48H44v.96h-.508c-.424 0-.763.16-.932.48v-.48h-3.373v.48c-.322-.4-.848-.48-1.237-.48h-9.848v.48c-.254-.4-.848-.48-1.22-.48h-6.526l-.424 1.03-.424-1.03h-3.78v.48c-.238-.4-.763-.48-1.085-.48H11.58v-.48H9.068L8 23.376l-1.085-1.67H4v.48h1.695c.34 0 .73.08.932.32v-.32h1.78l.407.96.407-.96h9.814c.34 0 .73.08.932.32v-.32h3.56l.322.96.322-.96h2.915c.56 0 1.05.16 1.305.48v-.48h2.458c.56 0 1.1.16 1.39.48v-.48h2.458v.48c.254-.32.678-.48 1.254-.48h2.797c.34 0 .73.08.932.32v-.32h1.78l.407.96.407-.96h3.56c.34 0 .73.08.932.32v-.32H44v-.48h-2.034c-.34 0-.73.08-.932.32v-.32h-3.373c-.34 0-.695.08-.932.32v-.32h-4.068c-.34 0-.73.08-.932.32v-.32h-4.407c-.34 0-.73.08-.932.32v-.32h-4.56l-.56 1.27-.577-1.27h-2.56c-.34 0-.73.08-.932.32v-.32h-8.593z"/><path fill="#2A77BC" d="M12.02 22.666h1.78l1.628 3.776h-1.22l-.305-.736h-1.967l-.305.736h-1.22l1.61-3.776zm.882.832l-.73 1.752h1.458l-.729-1.752zm3.56-.832h1.22v3.776h-1.22v-3.776zm2.458 0h1.22l1.628 2.208v-2.208h1.22v3.776h-1.22l-1.628-2.224v2.224h-1.22v-3.776zm4.916 0h3.56v.816h-2.34v.656h2.289v.816h-2.29v.672h2.34v.816h-3.56v-3.776zm4.916 0h1.22l1.628 2.208v-2.208h1.22v3.776h-1.22l-1.628-2.224v2.224h-1.22v-3.776zm4.916 0h3.56v.816h-2.34v.656h2.289v.816h-2.29v.672h2.34v.816h-3.56v-3.776zm4.916 0h1.22v2.96h2.34v.816h-3.56v-3.776zm4.916 0h1.22v3.776h-1.22v-3.776zm2.458 0h1.78l1.628 3.776h-1.22l-.305-.736h-1.967l-.305.736h-1.22l1.61-3.776zm.882.832l-.73 1.752h1.458l-.729-1.752zM12.02 17.93h1.22v3.776h-1.22V17.93zm2.458 0h1.22l1.628 2.208V17.93h1.22v3.776h-1.22l-1.628-2.224v2.224h-1.22V17.93zm4.916 0h3.56v.816h-2.34v.656h2.289v.816h-2.29v.672h2.34v.816h-3.56V17.93zm4.916 0h1.22v2.96h2.34v.816h-3.56V17.93zm4.916 0h3.56v.816h-2.34v.656h2.289v.816h-2.29v.672h2.34v.816h-3.56V17.93zm4.916 0h1.22v3.776h-1.22V17.93zm2.458 0h1.78l1.628 3.776h-1.22l-.305-.736h-1.967l-.305.736h-1.22l1.61-3.776zm.882.832l-.73 1.752h1.458l-.729-1.752zm3.56-.832h1.22v2.96h2.34v.816h-3.56V17.93z"/></g></svg>