<svg xmlns="http://www.w3.org/2000/svg" width="48" height="48" viewBox="0 0 48 48"><title>discover</title><g fill="none"><path fill="#4D4D4D" d="M44 24c0 11.046-8.954 20-20 20S4 35.046 4 24 12.954 4 24 4s20 8.954 20 20z"/><path fill="#FFF" d="M10 18h28v12H10z"/><path fill="#F27712" d="M28.56 24c0 2.56-2.032 4.64-4.56 4.64-2.528 0-4.56-2.08-4.56-4.64 0-2.56 2.032-4.64 4.56-4.64 2.528 0 4.56 2.08 4.56 4.64z"/><path fill="#F27712" d="M10 24.8V30h6.176C14.696 28.72 13.2 26.56 13.2 24c0-2.56 1.52-4.72 2.976-6H10v6.8z"/><path fill="#000" d="M11.2 20h.944v.64h.096c.192-.464.56-.736 1.104-.736.336 0 .624.112.832.32.208.208.32.512.32.896V23.2h-.992v-1.824c0-.464-.208-.704-.608-.704-.384 0-.704.272-.704.816V23.2h-.992V20zm4.176 1.6c0-1.024.784-1.696 2.016-1.696 1.232 0 2.016.672 2.016 1.696 0 1.024-.784 1.696-2.016 1.696-1.232 0-2.016-.672-2.016-1.696zm3.04 0c0-.464-.384-.768-.992-.768-.608 0-.992.304-.992.768 0 .464.384.768.992.768.608 0 .992-.304.992-.768zm1.072-1.6h.944v.64h.096c.192-.464.56-.736 1.104-.736.336 0 .624.112.832.32.208.208.32.512.32.896V23.2h-.992v-1.824c0-.464-.208-.704-.608-.704-.384 0-.704.272-.704.816V23.2h-.992V20zm4.176 0h.992v3.2h-.992V20zm1.76 1.6c0-1.024.784-1.696 2.016-1.696 1.232 0 2.016.672 2.016 1.696 0 1.024-.784 1.696-2.016 1.696-1.232 0-2.016-.672-2.016-1.696zm3.04 0c0-.464-.384-.768-.992-.768-.608 0-.992.304-.992.768 0 .464.384.768.992.768.608 0 .992-.304.992-.768zm1.072-1.6h.944v.576h.096c.224-.416.56-.672 1.088-.672.528 0 .896.256 1.088.672h.096c.256-.416.656-.672 1.216-.672.976 0 1.376.576 1.376 1.52V23.2h-.992v-1.92c0-.448-.192-.64-.56-.64-.368 0-.656.272-.656.768V23.2h-.992v-1.92c0-.448-.192-.64-.56-.64-.368 0-.656.272-.656.768V23.2h-.992V20zm7.2 2.064c0-.736.56-1.168 1.552-1.232l1.136-.064v-.32c0-.352-.224-.544-.656-.544-.352 0-.608.128-.688.352h-.96c.096-.688.736-1.104 1.712-1.104 1.056 0 1.584.528 1.584 1.408V23.2h-.944v-.512h-.096c-.256.384-.672.608-1.2.608-.752 0-1.44-.448-1.44-1.232zm2.688-.384v-.32l-1.024.064c-.512.032-.768.224-.768.544 0 .32.256.512.656.512.64 0 1.136-.352 1.136-.8z"/></g></svg>