<svg xmlns="http://www.w3.org/2000/svg" width="48" height="48" viewBox="0 0 48 48"><title>mastercard</title><g fill="none"><path fill="#3F3F4E" d="M44 24c0 11.046-8.954 20-20 20S4 35.046 4 24 12.954 4 24 4s20 8.954 20 20z"/><path fill="#F16522" d="M17.016 28.848A7.16 7.16 0 0 1 16 24c0-1.792.656-3.43 1.744-4.688 1.088-1.258 2.584-2.112 4.256-2.26V29.11c-1.672-.148-3.168-1.004-4.256-2.262h-.728z"/><path fill="#E41B24" d="M22 17.052c1.672.148 3.168 1.002 4.256 2.26A7.16 7.16 0 0 1 28 24c0 1.792-.656 3.43-1.744 4.688-1.088 1.258-2.584 2.112-4.256 2.26V17.052z"/><path fill="#F9A51A" d="M22 17.052v14.056c-1.672-.148-3.168-1.004-4.256-2.262C16.656 27.43 16 25.792 16 24c0-1.792.656-3.43 1.744-4.688 1.088-1.258 2.584-2.112 4.256-2.26z"/><path fill="#F16522" d="M31.016 28.848A7.16 7.16 0 0 1 30 24c0-1.792.656-3.43 1.744-4.688 1.088-1.258 2.584-2.112 4.256-2.26V29.11c-1.672-.148-3.168-1.004-4.256-2.262h-.728z"/><path fill="#E41B24" d="M36 17.052c1.672.148 3.168 1.002 4.256 2.26A7.16 7.16 0 0 1 42 24c0 1.792-.656 3.43-1.744 4.688-1.088 1.258-2.584 2.112-4.256 2.26V17.052z"/><path fill="#F9A51A" d="M36 17.052v14.056c-1.672-.148-3.168-1.004-4.256-2.262C30.656 27.43 30 25.792 30 24c0-1.792.656-3.43 1.744-4.688 1.088-1.258 2.584-2.112 4.256-2.26z"/></g></svg>