<svg xmlns="http://www.w3.org/2000/svg" width="48" height="48" viewBox="0 0 48 48"><title>visa</title><g fill="none"><path fill="#2A2A6C" d="M44 24c0 11.046-8.954 20-20 20S4 35.046 4 24 12.954 4 24 4s20 8.954 20 20z"/><path fill="#FFF" d="M16.536 27.428l1.532-9.428h2.454l-1.532 9.428h-2.454zm11.272-9.196a6.13 6.13 0 0 0-2.242-.42c-2.47 0-4.2 1.306-4.214 3.174-.014 1.382 1.242 2.152 2.186 2.61.974.47 1.3.772 1.3 1.19-.014.642-.784.936-1.51.936-1 0-1.538-.146-2.354-.502l-.328-.154-.354 2.184c.594.27 1.688.502 2.822.516 2.66 0 4.384-1.29 4.4-3.286.016-1.094-.656-1.926-2.1-2.61-.872-.442-1.41-.74-1.41-1.19.016-.4.448-.826 1.424-.826a4.34 4.34 0 0 1 1.858.366l.224.104.34-2.092zm6.474-.232h-1.894c-.586 0-1.026.168-1.282.784l-3.632 8.644h2.566l.514-1.41h3.142l.294 1.41h2.268l-1.976-9.428zm-3.388 6.09l.982-2.51.56 2.51h-1.542zm-12.74-6.09l-2.396 6.404-.256-1.306c-.448-1.508-1.842-3.14-3.4-3.954l2.198 8.27h2.594l3.856-9.414h-2.596z"/><path fill="#F7A823" d="M12.8 18.232h-3.9l-.032.2c3.028.772 5.032 2.64 5.858 4.88l-.844-4.27c-.146-.586-.57-.768-1.082-.81z"/></g></svg>